<svg xmlns="http://www.w3.org/2000/svg" version="1.1" xmlns:xlink="http://www.w3.org/1999/xlink" xmlns:svgjs="http://svgjs.dev/svgjs" width="1000" height="750" viewBox="0 0 1000 750"><rect width="1000" height="750" fill="#ffffff"></rect><g transform="matrix(0.834,0,0,0.834,82.49454545454546,115.4193570850203)"><svg viewBox="0 0 396 247" data-background-color="#ffffff" preserveAspectRatio="xMidYMid meet" height="623" width="1000" xmlns="http://www.w3.org/2000/svg" xmlns:xlink="http://www.w3.org/1999/xlink"><g id="tight-bounds" transform="matrix(1,0,0,1,0.2400000000000091,-0.09999999999999432)"><svg viewBox="0 0 395.52 247.2" height="247.2" width="395.52"><g><svg></svg></g><g><svg viewBox="0 0 395.52 247.2" height="247.2" width="395.52"><g transform="matrix(1,0,0,1,75.54432,83.6365367558852)"><svg viewBox="0 0 244.43135999999998 79.9269264882296" height="79.9269264882296" width="244.43135999999998"><g><svg viewBox="0 0 244.43135999999998 79.9269264882296" height="79.9269264882296" width="244.43135999999998"><g><svg viewBox="0 0 244.43135999999998 79.9269264882296" height="79.9269264882296" width="244.43135999999998"><g><svg viewBox="0 0 244.43135999999998 79.9269264882296" height="79.9269264882296" width="244.43135999999998"><g><svg viewBox="0 0 244.43135999999998 79.9269264882296" height="79.9269264882296" width="244.43135999999998"><g><svg viewBox="0 0 244.43135999999998 79.9269264882296" height="79.9269264882296" width="244.43135999999998"><g transform="matrix(1,0,0,1,0,0)"><svg width="244.43135999999998" viewBox="3.0999999046325684 -37.29999923706055 155.0399932861328 50.69999694824219" height="79.9269264882296" data-palette-color="#35185a"><path d="M35.8-14L35.8-14 35.8-0.35Q35.8 2.35 37.45 3.2L37.45 3.2Q35.55 5.35 32.95 5.35 30.35 5.35 29.15 3.9 27.95 2.45 27.95-0.6L27.95-0.6 27.95-3.3Q25.1 0.55 19.1 0.55L19.1 0.55Q13.3 0.55 8.4-3.65L8.4-3.65Q6.05-5.7 4.58-9.2 3.1-12.7 3.1-17.05L3.1-17.05Q3.1-26.05 8.33-31.68 13.55-37.3 23.1-37.3L23.1-37.3Q28.45-37.3 32.23-35.1 36-32.9 36-29.8L36-29.8Q36-28 34.33-26.78 32.65-25.55 30.5-25.55 28.35-25.55 26.65-26.6L26.65-26.6Q26.7-27.1 26.7-27.55L26.7-27.55Q26.7-29.8 25.4-31.35 24.1-32.9 21.5-32.9L21.5-32.9Q16.95-32.9 14.3-29L14.3-29Q11.5-25 11.5-18.7 11.5-12.4 14.1-8.93 16.7-5.45 21.4-5.45L21.4-5.45Q27.95-5.45 27.95-11.5L27.95-11.5 27.95-13.85 26.35-13.85Q23.75-13.85 21.65-13.75L21.65-13.75Q20.75-15.05 20.75-16.78 20.75-18.5 22.5-19.18 24.25-19.85 28.5-19.85 32.75-19.85 34.27-18.5 35.8-17.15 35.8-14ZM61.35-21.1Q61.9-22.6 61.9-23.8 61.9-25 61.35-25.8L61.35-25.8Q62.75-26.7 64.6-26.7L64.6-26.7Q67.25-26.7 68.55-24.7L68.55-24.7Q69.2-23.7 69.2-22.35 69.2-21 68.55-19.25L68.55-19.25 59 6.6Q56.5 13.4 51.1 13.4L51.1 13.4Q48.7 13.4 47.15 12.15 45.6 10.9 45.6 9.18 45.6 7.45 46.5 6L46.5 6Q47.85 7.1 49.1 7.1 50.35 7.1 51.32 6.38 52.3 5.65 52.75 4.3L52.75 4.3 54.05 0.5Q53.9 0.5 53.8 0.5L53.8 0.5Q51.9 0.5 50.2-0.98 48.5-2.45 47.65-5.2L47.65-5.2 42.9-20.4Q42.35-22.2 41.92-23.08 41.5-23.95 40.7-24.55L40.7-24.55Q42.95-26.7 45.3-26.7 47.65-26.7 48.95-25.35 50.25-24 51-21.05L51-21.05 55.6-4.15 61.35-21.1ZM80.84-6.85L80.84-6.85Q80.84-4.4 83.64-4.4L83.64-4.4Q85.69-4.4 87.34-6.3L87.34-6.3 87.34-11.15Q80.84-10.8 80.84-6.85ZM95.19-17.7L95.19-17.7 95.19-6.35Q95.19-3.2 97.89-2.35L97.89-2.35Q97-1.1 95.47-0.28 93.94 0.55 92.25 0.55L92.25 0.55Q88.55 0.55 87.64-2.75L87.64-2.75Q84.55 0.55 79.89 0.55L79.89 0.55Q76.44 0.55 74.39-1.15 72.34-2.85 72.34-5.95L72.34-5.95Q72.34-9.75 76.32-12.03 80.3-14.3 87.34-14.4L87.34-14.4 87.34-19.15Q87.34-22.5 84.64-22.5L84.64-22.5Q83.55-22.5 82.82-21.83 82.09-21.15 82.09-20.03 82.09-18.9 82.89-17.95L82.89-17.95Q81.19-16.15 78.62-16.15 76.05-16.15 74.82-17.3 73.59-18.45 73.59-20.3L73.59-20.3Q73.59-23.1 77.02-24.9 80.44-26.7 85.02-26.7 89.59-26.7 92.39-24.55 95.19-22.4 95.19-17.7ZM126.99-17.7L126.99-17.7 126.99-5.15Q126.99-2.45 128.59-1.6L128.59-1.6Q126.79 0.55 124.04 0.55L124.04 0.55Q119.14 0.55 119.14-5.4L119.14-5.4 119.14-16.55Q119.14-18.35 118.27-19.38 117.39-20.4 115.79-20.4 114.19-20.4 112.69-18.93 111.19-17.45 110.54-14.55L110.54-14.55 110.54-5.15Q110.54-2.45 112.19-1.6L112.19-1.6Q110.29 0.55 107.59 0.55L107.59 0.55Q102.69 0.55 102.69-5.4L102.69-5.4 102.69-21.05Q102.69-23.65 100.99-24.55L100.99-24.55Q102.89-26.7 105.44-26.7 107.99-26.7 109.19-25.43 110.39-24.15 110.54-21.5L110.54-21.5Q111.89-24.05 114.27-25.38 116.64-26.7 119.77-26.7 122.89-26.7 124.94-24.4 126.99-22.1 126.99-17.7ZM141.09-6.85L141.09-6.85Q141.09-4.4 143.89-4.4L143.89-4.4Q145.94-4.4 147.59-6.3L147.59-6.3 147.59-11.15Q141.09-10.8 141.09-6.85ZM155.44-17.7L155.44-17.7 155.44-6.35Q155.44-3.2 158.14-2.35L158.14-2.35Q157.24-1.1 155.72-0.28 154.19 0.55 152.49 0.55L152.49 0.55Q148.79 0.55 147.89-2.75L147.89-2.75Q144.79 0.55 140.14 0.55L140.14 0.55Q136.69 0.55 134.64-1.15 132.59-2.85 132.59-5.95L132.59-5.95Q132.59-9.75 136.56-12.03 140.54-14.3 147.59-14.4L147.59-14.4 147.59-19.15Q147.59-22.5 144.89-22.5L144.89-22.5Q143.79-22.5 143.06-21.83 142.34-21.15 142.34-20.03 142.34-18.9 143.14-17.95L143.14-17.95Q141.44-16.15 138.87-16.15 136.29-16.15 135.06-17.3 133.84-18.45 133.84-20.3L133.84-20.3Q133.84-23.1 137.27-24.9 140.69-26.7 145.27-26.7 149.84-26.7 152.64-24.55 155.44-22.4 155.44-17.7Z" opacity="1" transform="matrix(1,0,0,1,0,0)" fill="#000000" class="undefined-text-0" data-fill-palette-color="primary" id="text-0"></path></svg></g></svg></g></svg></g></svg></g><g></g></svg></g></svg></g></svg></g><g><path d="M90.637 64.768A122.216 122.216 0 0 1 304.883 64.768L297.676 64.768A115.008 115.008 0 0 0 97.844 64.768L90.637 64.768M90.637 182.432A122.216 122.216 0 0 0 304.883 182.432L297.676 182.432A115.008 115.008 0 0 1 97.844 182.432L90.637 182.432" fill="#000000" stroke="transparent" data-fill-palette-color="tertiary"></path></g></svg></g><defs></defs></svg><rect width="395.52" height="247.2" fill="none" stroke="none" visibility="hidden"></rect></g></svg></g></svg>